<?xml version="1.0" standalone="no"?><!DOCTYPE svg PUBLIC "-//W3C//DTD SVG 1.1//EN" "http://www.w3.org/Graphics/SVG/1.1/DTD/svg11.dtd"><svg t="1509519008381" class="icon" style="" viewBox="0 0 1024 1024" version="1.1" xmlns="http://www.w3.org/2000/svg" p-id="1450" xmlns:xlink="http://www.w3.org/1999/xlink" width="200" height="200"><defs><style type="text/css"></style></defs><path d="M645.500542 645.829939a292.474912 292.474912 0 1 0-413.559525-413.559525 292.474912 292.474912 0 0 0 413.559525 413.559525z m43.944355 146.529931a436.518806 436.518806 0 0 1-561.55183-664.210525 436.372568 436.372568 0 0 1 664.137406 561.624949 70.70581 70.70581 0 0 1 3.948411 3.655937l206.633525 206.633525a72.241303 72.241303 0 0 1-0.438712 102.366219 72.753134 72.753134 0 0 1-102.366219 0.511831l-206.706644-206.633525a73.045609 73.045609 0 0 1-3.655937-3.948411z" p-id="1451" fill="#b1b9c6"></path></svg>